<svg xmlns="http://www.w3.org/2000/svg" version="1.1" xmlns:xlink="http://www.w3.org/1999/xlink" xmlns:svgjs="http://svgjs.dev/svgjs" width="128" height="128" viewBox="0 0 128 128"><g transform="matrix(0.4660633484162896,0,0,0.4660633484162896,34.387132957224075,12.760752631578946)"><svg viewBox="0 0 55 95" data-background-color="#050505" preserveAspectRatio="xMidYMid meet" height="221" width="128" xmlns="http://www.w3.org/2000/svg" xmlns:xlink="http://www.w3.org/1999/xlink"><g id="tight-bounds" transform="matrix(1,0,0,1,-0.1983920733509308,-0.24049999999999727)"><svg viewBox="0 0 55.396784146701854 95.481" height="95.481" width="55.396784146701854"><g><svg viewBox="0 0 55.396784146701854 95.481" height="95.481" width="55.396784146701854"><g><svg viewBox="0 0 55.396784146701854 95.481" height="95.481" width="55.396784146701854"><g id="textblocktransform"><svg viewBox="0 0 55.396784146701854 95.481" height="95.481" width="55.396784146701854" id="textblock"><g><svg viewBox="0 0 55.396784146701854 95.481" height="95.481" width="55.396784146701854"><g><svg viewBox="0 0 55.396784146701854 95.481" height="95.481" width="55.396784146701854"><g><svg xmlns="http://www.w3.org/2000/svg" xml:space="preserve" viewBox="21.679106830508623 1 56.85827385947761 98" x="0" y="0" height="95.481" width="55.396784146701854" class="icon-icon-0" data-fill-palette-color="accent" id="icon-0"><path fill-rule="evenodd" d="M30.545 28.822c-1.165 7.217 0.33 14.85 6.5 19.041C30.758 19.81 45.756 8.664 59.646 1c-16.18 23.046 16.896 23.644 18.777 50.13C80.028 73.71 64.507 91.317 46.639 99c0.206-22.825-22.55-25.933-24.838-44.603-0.896-7.303 3.261-20.631 8.744-25.575" clip-rule="evenodd" fill="#ffffff" data-fill-palette-color="accent"></path></svg></g></svg></g></svg></g></svg></g></svg></g><g></g></svg></g><defs></defs></svg><rect width="55.396784146701854" height="95.481" fill="none" stroke="none" visibility="hidden"></rect></g></svg></g></svg>