<svg xmlns="http://www.w3.org/2000/svg" version="1.1" xmlns:xlink="http://www.w3.org/1999/xlink" xmlns:svgjs="http://svgjs.dev/svgjs" width="2000" height="1500" viewBox="0 0 2000 1500"><rect width="2000" height="1500" fill="#000000"></rect><g transform="matrix(0.75,0,0,0.75,249.090909090909,578.813220124984)"><svg viewBox="0 0 396 91" data-background-color="#000000" preserveAspectRatio="xMidYMid meet" height="459" width="2000" xmlns="http://www.w3.org/2000/svg" xmlns:xlink="http://www.w3.org/1999/xlink"><g id="tight-bounds" transform="matrix(1,0,0,1,0.24000000000003752,-0.24801171059851868)"><svg viewBox="0 0 395.5199999999999 91.49602342119701" height="91.49602342119701" width="395.5199999999999"><g><svg viewBox="0 0 566.5130375638328 131.0520078715461" height="91.49602342119701" width="395.5199999999999"><g transform="matrix(1,0,0,1,170.9930375638328,23.229212126899327)"><svg viewBox="0 0 395.52 84.59358361774744" height="84.59358361774744" width="395.52"><g id="textblocktransform"><svg viewBox="0 0 395.52 84.59358361774744" height="84.59358361774744" width="395.52" id="textblock"><g><svg viewBox="0 0 395.52 84.59358361774744" height="84.59358361774744" width="395.52"><g transform="matrix(1,0,0,1,0,0)"><svg width="395.52" viewBox="3.96 -36.23 171.66 36.72" height="84.59358361774744" data-palette-color="#b8a2a5"><path d="M28.74 0L23.36 0 14.43-14.04 8.62-14.04 8.62 0 3.96 0 3.96-32.93 15.72-32.93Q21.41-32.93 24.39-30.58 27.37-28.22 27.37-23.83L27.37-23.83Q27.37-20.19 25.09-17.7 22.8-15.21 18.97-14.58L18.97-14.58 28.74 0ZM22.68-23.75L22.68-23.75Q22.68-29.2 15.26-29.2L15.26-29.2 8.62-29.2 8.62-17.72 15.45-17.72Q18.95-17.72 20.81-19.29 22.68-20.85 22.68-23.75ZM48.19-26.42L48.19-3.47 57.47-3.47 57.47 0 33.49 0 33.49-3.47 43.8-3.47 43.8-22.95 36.01-22.95 36.01-26.42 48.19-26.42ZM48.19-31.54L43.31-31.54 43.31-36.23 48.19-36.23 48.19-31.54ZM85.88-7.54L85.88-7.54Q85.88-3.78 83.04-1.65 80.2 0.49 75.17 0.49L75.17 0.49Q70.14 0.49 67.51-1.09 64.89-2.66 64.08-6.05L64.08-6.05 67.96-6.81Q68.43-4.71 69.95-3.75 71.48-2.78 75.17-2.78L75.17-2.78Q81.76-2.78 81.76-6.96L81.76-6.96Q81.76-8.52 80.56-9.48 79.37-10.45 76.9-11.06L76.9-11.06Q70.45-12.65 68.72-13.55 66.99-14.45 66.06-15.81 65.13-17.16 65.13-19.19L65.13-19.19Q65.13-22.78 67.72-24.8 70.31-26.83 75.21-26.83L75.21-26.83Q79.51-26.83 82.08-25.21 84.64-23.58 85.27-20.48L85.27-20.48 81.32-20Q81.05-21.75 79.58-22.66 78.12-23.56 75.21-23.56L75.21-23.56Q69.23-23.56 69.23-19.87L69.23-19.87Q69.23-18.41 70.25-17.53 71.26-16.65 73.51-16.11L73.51-16.11 76.41-15.36Q80.39-14.38 82.14-13.43 83.88-12.48 84.88-11.05 85.88-9.62 85.88-7.54ZM118.3-26.42L107.46 0 102.26 0 91.69-26.42 96.62-26.42 103.17-9.23 103.58-7.93 104.85-3.44 105.71-6.3 106.66-9.18 113.4-26.42 118.3-26.42ZM146.89-2.71L146.89-2.71Q147.52-2.71 148.33-2.88L148.33-2.88 148.33-0.15Q146.67 0.24 144.94 0.24L144.94 0.24Q142.49 0.24 141.38-1.04 140.27-2.32 140.13-5.05L140.13-5.05 139.98-5.05Q138.39-2.1 136.23-0.81 134.07 0.49 130.9 0.49L130.9 0.49Q127.04 0.49 125.09-1.61 123.13-3.71 123.13-7.37L123.13-7.37Q123.13-15.89 134.22-16.02L134.22-16.02 139.98-16.11 139.98-17.55Q139.98-20.75 138.69-22.16 137.39-23.56 134.56-23.56L134.56-23.56Q131.68-23.56 130.41-22.53 129.14-21.51 128.9-19.36L128.9-19.36 124.31-19.78Q125.43-26.9 134.63-26.9L134.63-26.9Q139.52-26.9 141.97-24.62 144.42-22.34 144.42-18.02L144.42-18.02 144.42-6.64Q144.42-4.69 144.94-3.7 145.45-2.71 146.89-2.71ZM132.02-2.86L132.02-2.86Q134.37-2.86 136.17-3.98 137.98-5.1 138.98-6.98 139.98-8.86 139.98-10.86L139.98-10.86 139.98-13.04 135.34-12.94Q132.46-12.89 130.95-12.3 129.43-11.72 128.59-10.51 127.75-9.3 127.75-7.3L127.75-7.3Q127.75-5.3 128.84-4.08 129.92-2.86 132.02-2.86ZM175.62 0L171.2 0 171.2-16.97Q171.2-20.29 169.92-21.9 168.64-23.51 165.83-23.51L165.83-23.51Q162.8-23.51 160.86-21.3 158.92-19.09 158.92-15.31L158.92-15.31 158.92 0 154.53 0 154.53-20.78Q154.53-25.39 154.38-26.42L154.38-26.42 158.53-26.42Q158.56-26.29 158.58-25.76 158.61-25.22 158.64-24.52 158.68-23.83 158.73-21.9L158.73-21.9 158.8-21.9Q161.36-26.9 167.25-26.9L167.25-26.9Q171.47-26.9 173.55-24.62 175.62-22.34 175.62-17.6L175.62-17.6 175.62 0Z" opacity="1" transform="matrix(1,0,0,1,0,0)" fill="#b8a2a5" class="wordmark-text-0" data-fill-palette-color="primary" id="text-0"></path></svg></g></svg></g></svg></g></svg></g><g><svg viewBox="0 0 131.0520078715461 131.0520078715461" height="131.0520078715461" width="131.0520078715461"><g><svg></svg></g><g id="icon-0"><svg viewBox="0 0 131.0520078715461 131.0520078715461" height="131.0520078715461" width="131.0520078715461"><g><path d="M0 65.526c0-36.189 29.337-65.526 65.526-65.526 36.189 0 65.526 29.337 65.526 65.526 0 36.189-29.337 65.526-65.526 65.526-36.189 0-65.526-29.337-65.526-65.526zM65.526 123.423c31.976 0 57.897-25.921 57.897-57.897 0-31.976-25.921-57.897-57.897-57.897-31.976 0-57.897 25.921-57.897 57.897 0 31.976 25.921 57.897 57.897 57.897z" data-fill-palette-color="tertiary" fill="#b8a2a5" stroke="transparent"></path></g><g transform="matrix(1,0,0,1,54.3901707938041,30.203723487038587)"><svg viewBox="0 0 22.271666283937883 70.64456089746892" height="70.64456089746892" width="22.271666283937883"><g><svg xmlns="http://www.w3.org/2000/svg" xml:space="preserve" viewBox="35.81520772104568 5.000507062607356 28.372775728129582 89.9969610357183" x="0" y="0" height="70.64456089746892" width="22.271666283937883" class="icon-dxe-0" data-fill-palette-color="accent" id="dxe-0"><path d="M63.445 58.552c-0.347-1.233-2.54-9.696-2.54-9.696s1.376 0.066 1.465-1.796-0.169-4.958-0.989-6.458c-0.821-1.5-2.749-5.324-2.749-5.324s-2.911-1.924-3.489-2.275c-0.578-0.353 1.308-0.208 1.834-0.995 0.522-0.787 0.832-2.719 0.547-3.543-0.286-0.826-1.313-3.092-2.149-3.727-0.835-0.635-2.289-0.758-3.276-0.481-0.987 0.278-0.963 0.644-1.191 0.755s-1.585 0.152-1.81 0.342c-0.224 0.189-0.1 0.561-0.173 0.78-0.071 0.219-0.468 0.167-0.587 0.418-0.188 0.407-0.258 0.312-0.35 0.551-0.093 0.24 0.222 1.025 0.525 1.446 0.305 0.419 0.048 0.706 0.048 0.706s-1.66-1.473-2.147-1.496c-0.484-0.023-0.614-1.57-1.009-1.792s-0.698-0.683-0.911-1.301c-0.215-0.619-0.796-1.174-0.781-1.498s0.375-1.051 0.375-1.051c-0.192-0.523-1.522-2.102-1.284-3.117 0.237-1.017 0.827-2.07 0.378-2.848-0.449-0.78-2.311-2.572-2.311-2.572s-0.262-0.722-0.122-1.98c0.142-1.291 0.405-2.004 0.355-2.362-0.079-0.57 0.036-1.297-0.446-1.023-0.098 0.055-0.123 1.344-0.372 1.173-0.334-0.23-0.394-1.035-0.604-1.749-0.209-0.713 0.013-1.174-0.082-1.476-0.092-0.302-0.723-1.279-0.892-1.151-0.166 0.126-0.263 1.528-0.308 1.904-0.045 0.377-0.1 1.564-0.084 1.809 0.015 0.244 0.641 1.869 0.645 2.356 0 0 0.019 1.326-0.094 1.97-0.111 0.644-0.331 1.282-0.331 1.282s-1.593 1.06-1.668 1.489-0.067 1.43-0.312 2.041c-0.246 0.611-0.898 4.474-0.678 5.323 0.048 0.182 0.096 0.384 0.145 0.597-0.014 0.354 0.031 0.465 0.103 0.437q-0.051-0.222-0.103-0.437c0.045-1.102 0.091-4.102 0.451-4.247 0 0 0.137 2.156 0.453 2.252 0.315 0.096 0.776 0.686 0.945 0.978 0.167 0.292-0.082 1.497-0.649 0.942-0.567-0.554-0.423-1.034-0.567-0.554-0.099 0.326-0.375 1.006-0.53 1.064 0.161 0.673 0.351 1.381 0.605 1.847 0.4 0.722 2.173 3.782 2.712 4.403 0.538 0.62 3.304 3.321 3.352 4.026 0.048 0.706-0.003 2.327-0.137 2.86-0.133 0.535-2.291 5.774-2.666 6.851-0.376 1.077-3.576 7.782-3.914 8.9-0.337 1.12-0.368 1.769 0.013 2.313 0.379 0.546 1.909 1.633 1.966 2.163 0.055 0.53 0.523 1.77 1.429 2.34 0.907 0.571 2.41 1.373 2.514 1.743 0.104 0.369 1.514 4.859 1.727 6.329 0.214 1.471 0.385 7.24 0.357 7.807l-0.041 0.851-0.438 0.709s0.154 1.873 0.288 2.447c0.137 0.575 0.547 0.474 0.526 0.919q-0.005 0.096 0.004 0.194c0.188-0.11 0.778-0.237 0.818-0.44 0.054-0.28-0.794-0.361-1.025-0.617-0.232-0.254-0.167-0.777-0.332-1.557-0.166-0.779 0.048-1.012 0.048-1.012s0.725-0.736 1.178-0.866 1.745-0.636 1.79 0.764c0.042 1.401 0.745 1.334 1.514 2.263 0.768 0.931-1.314 1.195-1.764 1.255-0.448 0.061-1.428 1.027-1.873 1.006 0.159 0.049 0.445 0.021 0.445 0.021s0.474 1.538 0.72 2.511c0.031-0.649 1.423-1.288 0.633-1.106-0.586 0.134-0.985 0.236-0.879-0.285 0.106-0.523 1.183-0.634 0.354-0.876-0.828-0.243-0.292-0.42-0.292-0.42s0.969 0.087 1.547-0.129-0.33 0.957-0.545 1.231c-0.217 0.273 1.692-1.298 1.724-0.771 0.031 0.529 1.121 0.647 0.703 0.919s-2.647 1.059-1.996 1.008 2.437-0.532 2.042-0.105c-0.394 0.428-2.699 2.428-1.869 2.224 0.831-0.204 1.694-0.408 1.67 0.099s-0.67 1.248-0.304 1.265c0.362 0.018 0.762 1.01 0.546 1.283-0.216 0.274 1.652 1.945 0.787 2.229s-1.772 0.605-1.879 1.127-0.594 1.514-0.855 1.744c-0.261 0.231-0.369 0.934-0.643 0.709-0.478-0.394 0.813-1.715 0.835-2.16 0.02-0.445 0.153-0.682 0.227-0.963s0.565-1.758 0.086-1.213c-0.478 0.546-0.569-0.108-0.35-0.462 0.22-0.355 0.502-1.61 0.049-1.013-0.454 0.598-0.479-0.21-0.289-0.736 0.187-0.525 1.436-1.765 0.762-1.391s-0.013-0.731-0.941 0.035c-0.203-0.01-0.766-0.117-0.453-0.711 0.312-0.593 1.34-1.721 0.549-1.312-0.79 0.407-1.218-0.218-1.218-0.22q0.044 0.178 0.077 0.327c0.202 0.901 1.046 3.579 1.127 5.327 0.078 1.748 0.034 2.68-0.146 3.035-0.181 0.357-0.923 0.646-0.587 1.23 0.337 0.583 0.852 0.853 1.218 0.829s0.732-0.159 1.037-0.478 0.398-0.712 0.615-1.026c0.221-0.314 1.245-0.549 1.408-1.393 0.16-0.845-0.035-1.828-0.175-2.32-0.139-0.494-0.911-1.303-0.992-2.158-0.082-0.855 0.595-3.947 0.465-4.643s-0.019-1.299-0.019-1.299-0.044-0.772 0.383-1.239c0.429-0.467 0.264-1.286 0.093-1.944s-0.356-2.734-0.632-2.909c-0.274-0.176-0.919-0.288-0.919-0.288s0.285-4.245 0.262-5.504c-0.021-1.259-0.226-3.743-0.226-3.743l2.934 0.545s0.006 4.99 0.015 6.492l0.01 1.502s-0.06 0.061-0.13 0.162c0.008-0.001 1.301-0.025 1.771 0.084 0.472 0.11 0.811 1.087 0.997 1.42 0.188 0.334 0.188 1.146-0.278 1.609-0.468 0.465 0.683 0.154 0.453 0.671-0.227 0.517 0.544 1.365 0.343 1.314-0.202-0.05-0.843-0.162-1.185-0.015-0.342 0.146-1.029 0.518-1.477 0.213s0.267-1.854 0.771-2.601c0.506-0.746-0.631-0.841-1.101-1.229-0.465-0.385-0.296-1.453-0.295-1.467-0.104 0.154-0.23 0.401-0.193 0.672 0.06 0.45 0.157 4.349 0.263 4.679s0.862 1.502 0.883 2.761 0.287 6.748 0.258 7.354c-0.028 0.608-0.312 2.257-0.408 2.577s-1.538 0.819-1.043 1.451c0 0 2.096 0.303 2.587 0.245 0.488-0.059 0.741-1.101 1.705-1.744s0.904-1.093 0.949-2.023-0.38-3.143-0.387-3.832 0.621-3.622 0.587-4.598c-0.037-0.974 0.113-1.535 0.113-1.535s0.308 0.339 0.383-1.239 0.109-4.823 0.109-4.823l-0.846-0.162s-0.074-2.721-0.031-3.612c0.043-0.89 0.447-4.238 0.447-4.238s2.116-0.142 3.1-0.338 3.925-0.624 3.951-1.191c0.024-0.563-0.396-5.371-0.742-6.604M48.61 28.228s-0.424-0.777-0.301-1.068c0.122-0.292 0.21-0.296 0.259-0.452 0.028-0.094 0.161-0.125 0.246-0.221 0.086-0.096 0.498-0.498 0.61-0.574s0.067-0.32 0.102-0.454 1.247-0.41 1.137-0.297c-0.108 0.112-0.025 0.654 0.25 0.56 0.274-0.096 0.339-0.34 0.189-0.57-0.136-0.208-0.037-0.285 0.187-0.353 0.223-0.068 0.577-0.175 0.982-0.184 0.405-0.007 0.639-0.347 0.646 0.031 0.01 0.38-0.455 1.061-0.633 1.377-0.178 0.315-0.298 0.554-1.257 1.426-0.961 0.872 0.005 1.002 0.068 1.384 0.062 0.382-0.584 0.378-0.823 0.827-0.238 0.449 0.639 0.22 0.935 0.208 0.299-0.013-0.022 0.458-0.155 0.462-0.137 0.002-1.213-0.291-1.292-0.338s-0.126-0.551-0.357-0.833c-0.229-0.282-0.793-0.931-0.793-0.931m-2.057 0.024s-0.201 0.721-0.777 1.343c-0.574 0.621-1.706 1.784-1.812 2.104-0.107 0.319-1.148 0.067-1.121-0.5s0.177 0.536 1.507-0.983 2.203-1.964 2.203-1.964m-6.629-10.073s0.009 0.024 0.012 0.071c0.058 0.35 0.137 0.872-0.154 1.19-0.31 0.34-0.407 1.126-0.696 1.153s-0.188-0.252-0.168-0.536c0.021-0.282 0.097-0.441 0.61-1.025 0.364-0.414 0.411-0.669 0.408-0.783q-0.008-0.036-0.012-0.07m-1.744-0.13c-0.488-0.322 1.512-1.876 1.512-1.876 0.708-0.101 0.85 0.338 0.534 0.703-0.314 0.362-1.559 1.493-2.046 1.173m0.648-12.681s0.287 0.203 0.306 0.988c0.015 0.785 0.156 1.792 0.385 2.101s1.178 1.408 0.478 1.348c-0.7-0.061-1.269-1.196-1.271-2.251-0.007-1.055 0.026-1.909 0.102-2.186m0.48 6.486c-0.104-0.762-0.468-2.212-0.468-2.212s1.217 1.275 1.321 1.847c0.105 0.573 0.004 1.678-0.086 1.781-0.088 0.105-1.155 0.351-1.155 0.351s0.495-1.004 0.388-1.767m-2.759 7.226c-0.181-0.144 0.203-1.397 0.604-2.027 0.396-0.63 1.393-1.231 1.393-1.231-0.483 0.435-1.813 3.402-1.997 3.258m0.93-0.754c0.284 0.206 0.465 0.753 0.535 1.446 0.067 0.693-0.223 0.801-0.61 0.133-0.389-0.668 0.075-1.579 0.075-1.579m-0.124 2.591c0.431 0.021 1.481 0.72 1.622 1.497 0.14 0.778-0.826 0.812-0.775 0.612s0.262-0.393 0.051-1.052c-0.213-0.659-0.898-1.057-0.898-1.057m0.005 4.502c0.239-0.8-0.749-0.604-0.448-0.873 0.297-0.27 0.944-0.361 1.244-0.549 0 0 1.438-0.946 2.272-1.149s1.065 0.051 1.065 0.051-1.489 0.538-2.275 1.311c-0.785 0.774-2.097 2.01-1.858 1.209m3.809 4.28c-0.152 0.642-1.03 0.6-1.427 0.257-0.353-0.307-1.474-2.007-1.709-2.368 0.294 0.432 1.677 2.201 2.39 1.589 0.762-0.654 2.018-1.446 2.018-1.446s-1.119 1.326-1.272 1.968m1.405-4.761l0.008-0.162c1.292 0.103 2.145 1.807 3.001 2.578 0.854 0.771-0.46 0.261-0.77-0.037-0.311-0.298-2.239-2.379-2.239-2.379M36.418 55.31c-0.952-0.456-0.285-1.672 0.119-2.504 0.346-0.712 3.359-6.99 4.227-8.796a5 5 0 0 1 0.232-0.484l-0.232 0.484c-1.045 2.485-2.404 9.538-2.545 10.133-0.15 0.642-0.848 1.624-1.801 1.167m4.21 2.782c-0.121 0.826-1.116 1.266-1.126 1.104-0.006-0.163-0.483-0.592-0.854-1.3a57 57 0 0 1-0.557-1.08c0.119-0.554 0.686 0.073 1.534-0.171 0.85-0.244 1.122 0.621 1.003 1.447m3.797 18.215c-0.258 0.271-0.171-6.08-0.271-7.424-0.16-2.604-1.675-6.261-1.492-6.698 0 0 2.065 1.762 3.184 2.141 1.118 0.377 0.346 2.541 0.695 5.396 0.352 2.857 0.562 6.025 0.562 6.025s-2.422 0.288-2.678 0.56m2.573-40.367c0.009 1.502-0.659 11.289-1.431 10.439-0.771-0.848-0.028-4.503-0.028-4.503s-0.14 0.358-1.612 3.167c-1.473 2.811-1.135 5.099-0.81 5.925 0.326 0.828-0.598 1.474-1.343 0.91-0.744-0.562 0.315 1.922 0.126 2.48-0.188 0.56-2.072 1.767-2.184 0.708-0.111-1.061 1.313-6.267 2.083-9.679 0.772-3.411 2.348-9.218 3.909-12.632 1.564-3.415-2.292 2.568-2.025 2.053 0.271-0.514 0.699-2.726 1.636-3.613 0.933-0.89 2.436-0.899 2.436-0.899 0.506 0.431-1.707 3.449-2.303 5.732s1.357-2.937 2.416-3.86c1.057-0.922-0.88 2.271-0.87 3.772m3.479 18.789c-0.146-0.413-0.099-1.222 0.152-3.198 0.252-1.976 0.326-6.841 0.326-6.841 0.878 0.204 0.873 2.233 0.896 4.303s-0.722 5.767-1.374 5.736m0.424-21.522c-0.818-0.689 0.151 1.102 0.332 1.557s-0.331 1.85 0.101 3.819c0.434 1.967-0.975 3.442-1.681 2.962-0.709-0.48-1.697-1.866-1.784-2.844s0.519-2.659 0.453-3.305c-0.109-1.101 0.207-2.627 0.517-3.14 0.309-0.514 0.255 1.473 0.422 3.063s0.563-2.488 0.489-3.466c-0.076-0.977 0.405-0.832 0.866-0.729s3.368 2.107 4.058 2.952c0.689 0.845-0.988 2.022-1.465 1.797-0.477-0.226-1.489-1.979-2.308-2.666m3.781 40.626c-0.604 0.784-2.58 0.526-2.58 0.526s0.221-1.206 0.164-1.736-0.169-4.71-0.158-5.484c0.012-0.688 0.004-0.648 1.229 0.059 1.223 0.708 1.232 2.21 1.137 3.382-0.098 1.171 0.814 2.472 0.208 3.253m0.542 15.849c-0.504 0.382 0.199 0.982-0.06 1.255-0.256 0.272-0.86 0.202-0.687-0.033 0.173-0.234 0.09-1.051-0.537-0.675s-0.484-0.023-0.484-0.023l-0.084-0.165s0.085-0.727 0.052-1.053c-0.032-0.327 0.692-0.737 1.003-1.25 0.308-0.514-0.919 0.523-0.874 0.201 0.047-0.322-0.11-1.709 0.092-1.902 0.201-0.193 1.097-0.678 1.336-0.586 0.239 0.094 0.535 0.716 0.677 1.128 0.143 0.413-0.213 1.086 0.027 1.989 0.24 0.904 0.046 0.732-0.461 1.114m0.815-5.884c-1.127 0.027-1.899 0.558-1.574 0.573 0.323 0.016 1.165 0.218 0.331 0.665-0.833 0.447-1.475 0.327-1.475 0.327s-0.03-0.195 0.292-0.384c0.324-0.187-0.049-0.448-0.407-0.627-0.355-0.18 0.595-0.54 1.102-0.963 0.507-0.421-1.304 0.102-1.406-0.147-0.104-0.248 0.271-0.718 0.102-0.847-0.17-0.13 0.082-0.605 0.413-0.703 0.328-0.097-0.179-0.543-0.322-0.916-0.145-0.371 1.148-0.27 1.673-0.163 0.521 0.106 0.984 1.426 0.389 1.162-0.597-0.263-0.542 0.331-0.246 0.873 0.296 0.541 2.259 1.123 1.128 1.15m4.137-23.942c-0.129 1.008-1.922 0.354-1.804 1.293 0.115 0.938 0.289 4.964-1.507 5.202-1.797 0.239-3.755-0.382-3.755-0.382-0.461-1.4 3.091-6.992 3.586-10.539s1.275-5.457 1.098-2.585c-0.179 2.872 0.364 7.685 0.777 6.65 0.415-1.035-0.536-12.562 0.189-12.447 0.724 0.117 1.546 11.801 1.416 12.808M44.569 81.471a1.6 1.6 0 0 1-0.132-0.426c0.198 0.08 0.147 0.269 0.132 0.426m0.205 0.247c-0.202-0.009-0.215-0.118-0.205-0.247 0.064 0.133 0.14 0.228 0.205 0.247m-0.354-0.795q0.005 0.061 0.017 0.122c-0.1-0.041-0.089-0.081-0.017-0.122" fill="#b8a2a5" data-fill-palette-color="accent"></path></svg></g></svg></g></svg></g></svg></g></svg></g><defs></defs></svg><rect width="395.5199999999999" height="91.49602342119701" fill="none" stroke="none" visibility="hidden"></rect></g></svg></g></svg>